<?xml version="1.0" encoding="UTF-8"?>
<svg version="1.1" xmlns="http://www.w3.org/2000/svg" width="394" height="469">
<path d="M0 0 C112.2 0 224.4 0 340 0 C340 30.03 340 60.06 340 91 C344.29 91 348.58 91 353 91 C353 127.96 353 164.92 353 203 C343.1 203 333.2 203 323 203 C323.00785522 209.12647095 323.00785522 209.12647095 323.01586914 215.37670898 C323.03240121 228.83568046 323.04352051 242.29465176 323.05181217 255.75363064 C323.05697526 263.91787164 323.0640182 272.08210305 323.07543945 280.24633789 C323.0853859 287.35971284 323.09185333 294.47308085 323.09408849 301.58646256 C323.09539567 305.35525724 323.09848194 309.12403203 323.10573006 312.89282036 C323.11374316 317.09318816 323.11399116 321.29352108 323.11352539 325.49389648 C323.11712067 326.75265091 323.12071594 328.01140533 323.12442017 329.30830383 C323.1230455 330.44558929 323.12167084 331.58287476 323.12025452 332.75462341 C323.12163721 334.24654536 323.12163721 334.24654536 323.12304783 335.76860714 C323 338 323 338 322 339 C320.37881158 339.09710803 318.75336554 339.12371591 317.12927151 339.12304783 C315.53785655 339.1260344 315.53785655 339.1260344 313.9142918 339.12908131 C312.73435636 339.12616847 311.55442092 339.12325563 310.33872986 339.12025452 C309.09647552 339.12110894 307.85422117 339.12196337 306.57432276 339.12284368 C303.11048283 339.12421194 299.64669871 339.1210642 296.1828655 339.11606562 C292.45346854 339.11176463 288.72407343 339.11320729 284.99467468 339.1139679 C278.52801539 339.11449336 272.06136616 339.11134427 265.5947094 339.10573006 C256.24490149 339.09761802 246.89509848 339.09500014 237.54528744 339.09374207 C222.37743821 339.09155108 207.20959436 339.08488973 192.04174805 339.07543945 C177.30379259 339.06626654 162.56583859 339.05919658 147.82788086 339.05493164 C146.91082794 339.05466364 145.99377502 339.05439565 145.04893261 339.05411953 C137.87744095 339.05204022 130.70594927 339.05008326 123.53445756 339.04816496 C88.35630012 339.03872385 53.1781561 339.01860731 18 339 C18 294.12 18 249.24 18 203 C7.77 203 -2.46 203 -13 203 C-13 166.04 -13 129.08 -13 91 C-8.71 91 -4.42 91 0 91 C0 60.97 0 30.94 0 0 Z " fill="#A97058" transform="translate(27,63)"/>
<path d="M0 0 C99.66 0 199.32 0 302 0 C302 42.24 302 84.48 302 128 C289.46 128 276.92 128 264 128 C264 115.46 264 102.92 264 90 C189.42 90 114.84 90 38 90 C38 102.54 38 115.08 38 128 C25.46 128 12.92 128 0 128 C0 85.76 0 43.52 0 0 Z " fill="#332411" transform="translate(46,83)"/>
<path d="M0 0 C112.2 0 224.4 0 340 0 C340 30.03 340 60.06 340 91 C334.06 91 328.12 91 322 91 C322 109.81 322 128.62 322 148 C321.67 148 321.34 148 321 148 C321 105.76 321 63.52 321 20 C221.34 20 121.68 20 19 20 C19 62.24 19 104.48 19 148 C18.67 148 18.34 148 18 148 C18 129.19 18 110.38 18 91 C12.06 91 6.12 91 0 91 C0 60.97 0 30.94 0 0 Z " fill="#727271" transform="translate(27,63)"/>
<path d="M0 0 C10.23 0 20.46 0 31 0 C31 36.96 31 73.92 31 112 C20.44 112 9.88 112 -1 112 C-1.13095989 74.64732977 -0.7754105 37.34432332 0 0 Z " fill="#A09F9F" transform="translate(349,154)"/>
<path d="M0 0 C10.23 0 20.46 0 31 0 C31.7754105 37.34432332 32.13095989 74.64732977 32 112 C21.44 112 10.88 112 0 112 C0 75.04 0 38.08 0 0 Z " fill="#A09F9F" transform="translate(14,154)"/>
</svg>
